# Rhino

mtllib Lecture1_b.mtl
usemtl Custom
v 0 -180 -2500
v 0 0 -2500
v 16000 -180 -2500
v 16000 0 -2500
v 0 0 -2500
v 0 0 2500
v 16000 0 -2500
v 16000 0 2500
v 0 0 2500
v 0 -180 2500
v 16000 0 2500
v 16000 -180 2500
v 0 -180 2500
v 0 -180 200
v 16000 -180 2500
v 16000 -180 200
v 0 -180 200
v 0 -1200 200
v 16000 -180 200
v 16000 -1200 200
v 0 -1200 200
v 0 -1200 -200
v 16000 -1200 200
v 16000 -1200 -200
v 0 -1200 -200
v 0 -180 -200
v 16000 -1200 -200
v 16000 -180 -200
v 0 -180 -200
v 0 -180 -2500
v 16000 -180 -200
v 16000 -180 -2500
v 16000 0 -2500
v 16000 0 2500
v 16000 -180 -2500
v 16000 -180 -200
v 16000 -1200 -200
v 16000 -1200 200
v 16000 -180 200
v 16000 -180 2500
v 0 0 -2500
v 0 -180 -2500
v 0 0 2500
v 0 -180 2500
v 0 -180 200
v 0 -1200 200
v 0 -1200 -200
v 0 -180 -200
vt 0.17353515326976776 0
vt 0.16374999284744263 0
vt 0.17353515326976776 0.99853515625
vt 0.16374999284744263 0.99853515625
vt 0.92653512954711914 0
vt 0.61549997329711914 0
vt 0.92653512954711914 0.99853515625
vt 0.61549997329711914 0.99853515625
vt 0.16228514909744263 0
vt 0.15250000357627869 0
vt 0.16228514909744263 0.99853515625
vt 0.15250000357627869 0.99853515625
vt 0.61403512954711914 0
vt 0.47174999117851257 0
vt 0.61403512954711914 0.99853515625
vt 0.47174999117851257 0.99853515625
vt 0.062285155057907104 0
vt 0 0
vt 0.062285155057907104 0.99853515625
vt 0 0.99853515625
vt 0.087285153567790985 0
vt 0.063749998807907104 0
vt 0.087285153567790985 0.99853515625
vt 0.063749998807907104 0.99853515625
vt 0.15103515982627869 0
vt 0.088749997317790985 0
vt 0.15103515982627869 0.99853515625
vt 0.088749997317790985 0.99853515625
vt 0.47028514742851257 0
vt 0.32800000905990601 0
vt 0.47028514742851257 0.99853515625
vt 0.32800000905990601 0.99853515625
vt 0.25223565101623535 0.31562498211860657
vt 0.25223565101623535 0.0031250000465661287
vt 0.26327022910118103 0.31562498211860657
vt 0.26327022910118103 0.171875
vt 0.32579952478408813 0.171875
vt 0.32579952478408813 0.14687499403953552
vt 0.26327022910118103 0.14687499403953552
vt 0.26327022910118103 0.0031250000465661287
vt 0.24929951131343842 0.31562498211860657
vt 0.23826493322849274 0.31562498211860657
vt 0.24929951131343842 0.0031250000465661287
vt 0.23826493322849274 0.0031250000465661287
vt 0.23826493322849274 0.14687499403953552
vt 0.17573563754558563 0.14687499403953552
vt 0.17573563754558563 0.171875
vt 0.23826493322849274 0.171875
vn 0 0 -1
vn 0 0 -1
vn 0 0 -1
vn 0 0 -1
vn 0 1 0
vn 0 1 0
vn 0 1 0
vn 0 1 0
vn 0 0 1
vn 0 0 1
vn 0 0 1
vn 0 0 1
vn 0 -1 0
vn 0 -1 0
vn 0 -1 0
vn 0 -1 0
vn 0 0 1
vn 0 0 1
vn 0 0 1
vn 0 0 1
vn 0 -1 0
vn 0 -1 0
vn 0 -1 0
vn 0 -1 0
vn 0 0 -1
vn 0 0 -1
vn 0 0 -1
vn 0 0 -1
vn 0 -1 0
vn 0 -1 0
vn 0 -1 0
vn 0 -1 0
vn 1 0 0
vn 1 0 0
vn 1 0 0
vn 1 0 0
vn 1 0 0
vn 1 0 0
vn 1 0 0
vn 1 0 0
vn -1 0 0
vn -1 0 0
vn -1 0 0
vn -1 0 0
vn -1 0 0
vn -1 0 0
vn -1 0 0
vn -1 0 0
f 2/2/2 4/4/4 3/3/3 1/1/1
f 6/6/6 8/8/8 7/7/7 5/5/5
f 10/10/10 12/12/12 11/11/11 9/9/9
f 14/14/14 16/16/16 15/15/15 13/13/13
f 18/18/18 20/20/20 19/19/19 17/17/17
f 22/22/22 24/24/24 23/23/23 21/21/21
f 26/26/26 28/28/28 27/27/27 25/25/25
f 30/30/30 32/32/32 31/31/31 29/29/29
f 36/36/36 34/34/34 39/39/39
f 40/40/40 39/39/39 34/34/34
f 39/39/39 38/38/38 37/37/37 36/36/36
f 36/36/36 35/35/35 33/33/33
f 34/34/34 36/36/36 33/33/33
f 45/45/45 44/44/44 43/43/43
f 46/46/46 45/45/45 48/48/48 47/47/47
f 43/43/43 41/41/41 48/48/48 45/45/45
f 42/42/42 48/48/48 41/41/41
