v -6.951 0.062 3.065
v -6.951 0.062 3.06
v -6.941502 0.06012558 3.065
v -6.941502 0.06012558 3.06
v -6.933139 0.05449259 3.065
v -6.933139 0.05449259 3.06
v -6.92771 0.04608624 3.065
v -6.92771 0.04608624 3.06
v -6.926 0.037 3.065
v -6.926 0.037 3.06
v -6.927875 0.02750224 3.065
v -6.927875 0.02750224 3.06
v -6.933507 0.01913917 3.065
v -6.933507 0.01913917 3.06
v -6.941914 0.01370965 3.065
v -6.941914 0.01370965 3.06
v -6.951 0.012 3.065
v -6.951 0.012 3.06
v -6.960498 0.01387442 3.065
v -6.960498 0.01387442 3.06
v -6.968861 0.01950741 3.065
v -6.968861 0.01950741 3.06
v -6.97429 0.02791376 3.065
v -6.97429 0.02791376 3.06
v -6.976 0.037 3.065
v -6.976 0.037 3.06
v -6.974125 0.04649776 3.065
v -6.974125 0.04649776 3.06
v -6.968493 0.05486083 3.065
v -6.968493 0.05486083 3.06
v -6.960086 0.06029035 3.065
v -6.960086 0.06029035 3.06
v -6.951 0.062 3.065
v -6.951 0.062 3.06
v -6.951 0.062 3.065
v -6.941502 0.06012558 3.065
v -6.933139 0.05449259 3.065
v -6.92771 0.04608624 3.065
v -6.926 0.037 3.065
v -6.927875 0.02750224 3.065
v -6.933507 0.01913917 3.065
v -6.941914 0.01370965 3.065
v -6.951 0.012 3.065
v -6.960498 0.01387442 3.065
v -6.968861 0.01950741 3.065
v -6.97429 0.02791376 3.065
v -6.976 0.037 3.065
v -6.974125 0.04649776 3.065
v -6.968493 0.05486083 3.065
v -6.960086 0.06029035 3.065
v -6.951 0.062 3.06
v -6.941502 0.06012558 3.06
v -6.933139 0.05449259 3.06
v -6.92771 0.04608624 3.06
v -6.926 0.037 3.06
v -6.927875 0.02750224 3.06
v -6.933507 0.01913917 3.06
v -6.941914 0.01370965 3.06
v -6.951 0.012 3.06
v -6.960498 0.01387442 3.06
v -6.968861 0.01950741 3.06
v -6.97429 0.02791376 3.06
v -6.976 0.037 3.06
v -6.974125 0.04649776 3.06
v -6.968493 0.05486083 3.06
v -6.960086 0.06029035 3.06
v -7.049 0.062 3.065
v -7.049 0.062 3.06
v -7.039502 0.06012558 3.065
v -7.039502 0.06012558 3.06
v -7.031139 0.05449259 3.065
v -7.031139 0.05449259 3.06
v -7.02571 0.04608624 3.065
v -7.02571 0.04608624 3.06
v -7.024 0.037 3.065
v -7.024 0.037 3.06
v -7.025875 0.02750224 3.065
v -7.025875 0.02750224 3.06
v -7.031507 0.01913917 3.065
v -7.031507 0.01913917 3.06
v -7.039914 0.01370965 3.065
v -7.039914 0.01370965 3.06
v -7.049 0.012 3.065
v -7.049 0.012 3.06
v -7.058498 0.01387442 3.065
v -7.058498 0.01387442 3.06
v -7.066861 0.01950741 3.065
v -7.066861 0.01950741 3.06
v -7.07229 0.02791376 3.065
v -7.07229 0.02791376 3.06
v -7.074 0.037 3.065
v -7.074 0.037 3.06
v -7.072125 0.04649776 3.065
v -7.072125 0.04649776 3.06
v -7.066493 0.05486083 3.065
v -7.066493 0.05486083 3.06
v -7.058086 0.06029035 3.065
v -7.058086 0.06029035 3.06
v -7.049 0.062 3.065
v -7.049 0.062 3.06
v -7.049 0.062 3.065
v -7.039502 0.06012558 3.065
v -7.031139 0.05449259 3.065
v -7.02571 0.04608624 3.065
v -7.024 0.037 3.065
v -7.025875 0.02750224 3.065
v -7.031507 0.01913917 3.065
v -7.039914 0.01370965 3.065
v -7.049 0.012 3.065
v -7.058498 0.01387442 3.065
v -7.066861 0.01950741 3.065
v -7.07229 0.02791376 3.065
v -7.074 0.037 3.065
v -7.072125 0.04649776 3.065
v -7.066493 0.05486083 3.065
v -7.058086 0.06029035 3.065
v -7.049 0.062 3.06
v -7.039502 0.06012558 3.06
v -7.031139 0.05449259 3.06
v -7.02571 0.04608624 3.06
v -7.024 0.037 3.06
v -7.025875 0.02750224 3.06
v -7.031507 0.01913917 3.06
v -7.039914 0.01370965 3.06
v -7.049 0.012 3.06
v -7.058498 0.01387442 3.06
v -7.066861 0.01950741 3.06
v -7.07229 0.02791376 3.06
v -7.074 0.037 3.06
v -7.072125 0.04649776 3.06
v -7.066493 0.05486083 3.06
v -7.058086 0.06029035 3.06
v -7.057 0.037 3.065
v -7.057 0.037 1.15
v -7.049 0.045 3.065
v -7.049 0.037 3.065
v -7.049 0.029 3.065
v -7.049 0.045 1.15
v -7.049 0.037 1.15
v -7.049 0.029 1.15
v -7.041 0.037 3.065
v -7.041 0.037 1.15
v -6.959 0.037 3.065
v -6.959 0.037 1.15
v -6.951 0.045 3.065
v -6.951 0.037 3.065
v -6.951 0.029 3.065
v -6.951 0.045 1.15
v -6.951 0.037 1.15
v -6.951 0.029 1.15
v -6.943 0.037 3.065
v -6.943 0.037 1.15
vn 4.932591E-16 1 0
vn -4.932591E-16 1 0
vn 0.3799104 0.9250233 0
vn 0.3799104 0.9250233 0
vn 0.7144333 0.6997036 0
vn 0.7144333 0.6997036 0
vn 0.9316139 0.3634495 0
vn 0.9316139 0.3634495 0
vn 1 -1.578429E-14 0
vn 1 -1.578429E-14 0
vn 0.9250233 -0.3799104 0
vn 0.9250233 -0.3799104 0
vn 0.6997036 -0.7144333 0
vn 0.6997036 -0.7144333 0
vn 0.3634495 -0.9316139 0
vn 0.3634495 -0.9316139 0
vn -3.082869E-16 -1 0
vn -3.082869E-16 -1 0
vn -0.3799104 -0.9250233 0
vn -0.3799104 -0.9250233 0
vn -0.7144333 -0.6997036 0
vn -0.7144333 -0.6997036 0
vn -0.9316139 -0.3634495 0
vn -0.9316139 -0.3634495 0
vn -1 3.156858E-14 0
vn -1 3.156858E-14 0
vn -0.9250233 0.3799104 0
vn -0.9250233 0.3799104 0
vn -0.6997036 0.7144333 0
vn -0.6997036 0.7144333 0
vn -0.3634495 0.9316139 0
vn -0.3634495 0.9316139 0
vn 4.932591E-16 1 0
vn -4.932591E-16 1 0
vn 0 -8.881784E-15 1
vn 0 -8.881784E-15 1
vn 0 -8.881784E-15 1
vn 0 -8.881784E-15 1
vn 0 -8.881784E-15 1
vn 0 -8.881784E-15 1
vn 0 -8.881784E-15 1
vn 0 -8.881784E-15 1
vn 0 -8.881784E-15 1
vn 0 -8.881784E-15 1
vn 0 -8.881784E-15 1
vn 0 -8.881784E-15 1
vn 0 -8.881784E-15 1
vn 0 -8.881784E-15 1
vn 0 -8.881784E-15 1
vn 0 -8.881784E-15 1
vn 0 8.881784E-15 -1
vn 0 8.881784E-15 -1
vn 0 8.881784E-15 -1
vn 0 8.881784E-15 -1
vn 0 8.881784E-15 -1
vn 0 8.881784E-15 -1
vn 0 8.881784E-15 -1
vn 0 8.881784E-15 -1
vn 0 8.881784E-15 -1
vn 0 8.881784E-15 -1
vn 0 8.881784E-15 -1
vn 0 8.881784E-15 -1
vn 0 8.881784E-15 -1
vn 0 8.881784E-15 -1
vn 0 8.881784E-15 -1
vn 0 8.881784E-15 -1
vn 4.932591E-16 1 0
vn -4.932591E-16 1 0
vn 0.3799104 0.9250233 0
vn 0.3799104 0.9250233 0
vn 0.7144333 0.6997036 0
vn 0.7144333 0.6997036 0
vn 0.9316139 0.3634495 0
vn 0.9316139 0.3634495 0
vn 1 -3.156858E-14 0
vn 1 -3.156858E-14 0
vn 0.9250233 -0.3799104 0
vn 0.9250233 -0.3799104 0
vn 0.6997036 -0.7144333 0
vn 0.6997036 -0.7144333 0
vn 0.3634495 -0.9316139 0
vn 0.3634495 -0.9316139 0
vn -3.082869E-16 -1 0
vn -3.082869E-16 -1 0
vn -0.3799104 -0.9250233 0
vn -0.3799104 -0.9250233 0
vn -0.7144333 -0.6997036 0
vn -0.7144333 -0.6997036 0
vn -0.9316139 -0.3634495 0
vn -0.9316139 -0.3634495 0
vn -1 3.156858E-14 0
vn -1 3.156858E-14 0
vn -0.9250233 0.3799104 0
vn -0.9250233 0.3799104 0
vn -0.6997036 0.7144333 0
vn -0.6997036 0.7144333 0
vn -0.3634495 0.9316139 0
vn -0.3634495 0.9316139 0
vn 4.932591E-16 1 0
vn -4.932591E-16 1 0
vn 0 -8.881784E-15 1
vn 0 -8.881784E-15 1
vn 0 -8.881784E-15 1
vn 0 -8.881784E-15 1
vn 0 -8.881784E-15 1
vn 0 -8.881784E-15 1
vn 0 -8.881784E-15 1
vn 0 -8.881784E-15 1
vn 0 -8.881784E-15 1
vn 0 -8.881784E-15 1
vn 0 -8.881784E-15 1
vn 0 -8.881784E-15 1
vn 0 -8.881784E-15 1
vn 0 -8.881784E-15 1
vn 0 -8.881784E-15 1
vn 0 -8.881784E-15 1
vn 0 8.881784E-15 -1
vn 0 8.881784E-15 -1
vn 0 8.881784E-15 -1
vn 0 8.881784E-15 -1
vn 0 8.881784E-15 -1
vn 0 8.881784E-15 -1
vn 0 8.881784E-15 -1
vn 0 8.881784E-15 -1
vn 0 8.881784E-15 -1
vn 0 8.881784E-15 -1
vn 0 8.881784E-15 -1
vn 0 8.881784E-15 -1
vn 0 8.881784E-15 -1
vn 0 8.881784E-15 -1
vn 0 8.881784E-15 -1
vn 0 8.881784E-15 -1
vn -0.5773503 0 0.8164966
vn -0.5773503 0 -0.8164966
vn 0 0.5773503 0.8164966
vn 0 0 1
vn 0 -0.5773503 0.8164966
vn 0 0.5773503 -0.8164966
vn 0 0 -1
vn 0 -0.5773503 -0.8164966
vn 0.5773503 0 0.8164966
vn 0.5773503 0 -0.8164966
vn -0.5773503 0 0.8164966
vn -0.5773503 0 -0.8164966
vn 0 0.5773503 0.8164966
vn 0 0 1
vn 0 -0.5773503 0.8164966
vn 0 0.5773503 -0.8164966
vn 0 0 -1
vn 0 -0.5773503 -0.8164966
vn 0.5773503 0 0.8164966
vn 0.5773503 0 -0.8164966

g mesh_reinforcement_wall_B0
f 3/3/3 4/4/4 2/2/2
f 7/7/7 8/8/8 6/6/6
f 5/5/5 6/6/6 4/4/4
f 11/11/11 12/12/12 10/10/10
f 15/15/15 16/16/16 14/14/14
f 13/13/13 14/14/14 12/12/12
f 9/9/9 10/10/10 8/8/8
f 17/17/17 18/18/18 16/16/16
f 21/21/21 22/22/22 20/20/20
f 25/25/25 26/26/26 24/24/24
f 23/23/23 24/24/24 22/22/22
f 29/29/29 30/30/30 28/28/28
f 33/33/33 34/34/34 32/32/32
f 31/31/31 32/32/32 30/30/30
f 27/27/27 28/28/28 26/26/26
f 19/19/19 20/20/20 18/18/18
f 42/42/42 41/41/41 40/40/40
f 40/40/40 43/43/43 42/42/42
f 44/44/44 40/40/40 37/37/37
f 37/37/37 39/39/39 38/38/38
f 40/40/40 39/39/39 37/37/37
f 36/36/36 35/35/35 37/37/37
f 43/43/43 40/40/40 44/44/44
f 46/46/46 45/45/45 44/44/44
f 48/48/48 46/46/46 44/44/44
f 47/47/47 46/46/46 48/48/48
f 35/35/35 50/50/50 37/37/37
f 50/50/50 49/49/49 48/48/48
f 37/37/37 50/50/50 48/48/48
f 48/48/48 44/44/44 37/37/37
f 58/58/58 56/56/56 57/57/57
f 56/56/56 58/58/58 59/59/59
f 60/60/60 53/53/53 56/56/56
f 53/53/53 54/54/54 55/55/55
f 56/56/56 53/53/53 55/55/55
f 52/52/52 53/53/53 51/51/51
f 59/59/59 60/60/60 56/56/56
f 62/62/62 60/60/60 61/61/61
f 64/64/64 60/60/60 62/62/62
f 63/63/63 64/64/64 62/62/62
f 51/51/51 53/53/53 66/66/66
f 66/66/66 64/64/64 65/65/65
f 53/53/53 64/64/64 66/66/66
f 64/64/64 53/53/53 60/60/60
f 69/69/69 70/70/70 68/68/68
f 73/73/73 74/74/74 72/72/72
f 71/71/71 72/72/72 70/70/70
f 77/77/77 78/78/78 76/76/76
f 81/81/81 82/82/82 80/80/80
f 79/79/79 80/80/80 78/78/78
f 75/75/75 76/76/76 74/74/74
f 83/83/83 84/84/84 82/82/82
f 87/87/87 88/88/88 86/86/86
f 91/91/91 92/92/92 90/90/90
f 89/89/89 90/90/90 88/88/88
f 95/95/95 96/96/96 94/94/94
f 99/99/99 100/100/100 98/98/98
f 97/97/97 98/98/98 96/96/96
f 93/93/93 94/94/94 92/92/92
f 85/85/85 86/86/86 84/84/84
f 107/107/107 106/106/106 105/105/105
f 107/107/107 109/109/109 108/108/108
f 107/107/107 103/103/103 112/112/112
f 103/103/103 105/105/105 104/104/104
f 107/107/107 105/105/105 103/103/103
f 102/102/102 101/101/101 103/103/103
f 109/109/109 107/107/107 112/112/112
f 112/112/112 111/111/111 110/110/110
f 112/112/112 103/103/103 115/115/115
f 113/113/113 112/112/112 114/114/114
f 116/116/116 103/103/103 101/101/101
f 116/116/116 115/115/115 103/103/103
f 115/115/115 114/114/114 112/112/112
f 110/110/110 109/109/109 112/112/112
f 123/123/123 121/121/121 122/122/122
f 123/123/123 124/124/124 125/125/125
f 123/123/123 128/128/128 119/119/119
f 119/119/119 120/120/120 121/121/121
f 123/123/123 119/119/119 121/121/121
f 118/118/118 119/119/119 117/117/117
f 125/125/125 128/128/128 123/123/123
f 128/128/128 126/126/126 127/127/127
f 128/128/128 131/131/131 119/119/119
f 129/129/129 130/130/130 128/128/128
f 132/132/132 117/117/117 119/119/119
f 132/132/132 119/119/119 131/131/131
f 131/131/131 128/128/128 130/130/130
f 126/126/126 128/128/128 125/125/125
f 134/134/134 133/133/133 135/135/135
f 140/140/140 137/137/137 133/133/133
f 142/142/142 141/141/141 137/137/137
f 138/138/138 135/135/135 141/141/141
f 140/140/140 139/139/139 142/142/142
f 142/142/142 139/139/139 138/138/138
f 138/138/138 139/139/139 134/134/134
f 134/134/134 139/139/139 140/140/140
f 137/137/137 141/141/141 136/136/136
f 141/141/141 135/135/135 136/136/136
f 135/135/135 133/133/133 136/136/136
f 133/133/133 137/137/137 136/136/136
f 144/144/144 143/143/143 145/145/145
f 150/150/150 147/147/147 143/143/143
f 152/152/152 151/151/151 147/147/147
f 148/148/148 145/145/145 151/151/151
f 150/150/150 149/149/149 152/152/152
f 152/152/152 149/149/149 148/148/148
f 148/148/148 149/149/149 144/144/144
f 144/144/144 149/149/149 150/150/150
f 147/147/147 151/151/151 146/146/146
f 151/151/151 145/145/145 146/146/146
f 145/145/145 143/143/143 146/146/146
f 143/143/143 147/147/147 146/146/146
f 3/3/3 2/2/2 1/1/1
f 7/7/7 6/6/6 5/5/5
f 5/5/5 4/4/4 3/3/3
f 11/11/11 10/10/10 9/9/9
f 15/15/15 14/14/14 13/13/13
f 13/13/13 12/12/12 11/11/11
f 9/9/9 8/8/8 7/7/7
f 17/17/17 16/16/16 15/15/15
f 21/21/21 20/20/20 19/19/19
f 25/25/25 24/24/24 23/23/23
f 23/23/23 22/22/22 21/21/21
f 29/29/29 28/28/28 27/27/27
f 33/33/33 32/32/32 31/31/31
f 31/31/31 30/30/30 29/29/29
f 27/27/27 26/26/26 25/25/25
f 19/19/19 18/18/18 17/17/17
f 69/69/69 68/68/68 67/67/67
f 73/73/73 72/72/72 71/71/71
f 71/71/71 70/70/70 69/69/69
f 77/77/77 76/76/76 75/75/75
f 81/81/81 80/80/80 79/79/79
f 79/79/79 78/78/78 77/77/77
f 75/75/75 74/74/74 73/73/73
f 83/83/83 82/82/82 81/81/81
f 87/87/87 86/86/86 85/85/85
f 91/91/91 90/90/90 89/89/89
f 89/89/89 88/88/88 87/87/87
f 95/95/95 94/94/94 93/93/93
f 99/99/99 98/98/98 97/97/97
f 97/97/97 96/96/96 95/95/95
f 93/93/93 92/92/92 91/91/91
f 85/85/85 84/84/84 83/83/83
f 134/134/134 135/135/135 138/138/138
f 140/140/140 133/133/133 134/134/134
f 142/142/142 137/137/137 140/140/140
f 138/138/138 141/141/141 142/142/142
f 144/144/144 145/145/145 148/148/148
f 150/150/150 143/143/143 144/144/144
f 152/152/152 147/147/147 150/150/150
f 148/148/148 151/151/151 152/152/152
