# Rhino

mtllib ConcreteWandscheibe.mtl
g concrete Wandscheibe
usemtl diffuse_0
v 3.4000000953674316 1 1.3999999761581421
v 3.4000000953674316 1 -1.6499999761581421
v 3.4000000953674316 0 1.3999999761581421
v 3.4000000953674316 0 -1.6499999761581421
v 3.5999999046325684 0 1.3999999761581421
v 3.5999999046325684 1 1.3999999761581421
v 3.5999999046325684 0 -1.6499999761581421
v 3.5999999046325684 1 -1.6499999761581421
vt 0.5901639461517334 0
vt 0.5901639461517334 0.99853515625
vt 0.91656792163848877 0
vt 0.91656792163848877 0.99853515625
vt 0.12968268990516663 0
vt 0.065573766827583313 0
vt 0.12968268990516663 0.32786884903907776
vt 0.065573766827583313 0.32786884903907776
vt 0.26083022356033325 0
vt 0.19672131538391113 0
vt 0.26083022356033325 0.99853515625
vt 0.19672131538391113 0.99853515625
vt 0.064108923077583313 0
vt 0 0
vt 0.064108923077583313 0.32786884903907776
vt 0 0.32786884903907776
vt 0.19525647163391113 0
vt 0.13114753365516663 0
vt 0.19525647163391113 0.99853515625
vt 0.13114753365516663 0.99853515625
vt 0.26229506731033325 0
vt 0.26229506731033325 0.99853515625
vt 0.5886991024017334 0
vt 0.5886991024017334 0.99853515625
vn -1 0 0
vn -1 0 0
vn -1 0 0
vn -1 0 0
vn 0 0 1
vn 0 0 1
vn 0 0 1
vn 0 0 1
vn 0 -1 0
vn 0 -1 0
vn 0 -1 0
vn 0 -1 0
vn 0 0 -1
vn 0 0 -1
vn 0 0 -1
vn 0 0 -1
vn 0 1 0
vn 0 1 0
vn 0 1 0
vn 0 1 0
vn 1 0 0
vn 1 0 0
vn 1 0 0
vn 1 0 0
f 2/2/2 4/4/4 3/3/3 1/1/1
f 5/6/6 6/8/8 1/7/7 3/5/5
f 7/10/10 5/12/12 3/11/11 4/9/9
f 8/14/14 7/16/16 4/15/15 2/13/13
f 6/18/18 8/20/20 2/19/19 1/17/17
f 8/22/22 6/21/21 5/23/23 7/24/24
usemtl diffuse_0
v 3.4000000953674316 0 -1.6499999761581421
v 3.4000000953674316 0 -2.0999999046325684
v 3.4000000953674316 0.60000002384185791 -1.6499999761581421
v 3.4000000953674316 0.60000002384185791 -2.0999999046325684
v 3.5999999046325684 0.60000002384185791 -1.6499999761581421
v 3.5999999046325684 0 -1.6499999761581421
v 3.5999999046325684 0.60000002384185791 -2.0999999046325684
v 3.5999999046325684 0 -2.0999999046325684
vt 0.67853516340255737 0.36000001430511475
vt 0.31999999284744263 0.36000001430511475
vt 0.67853516340255737 0.8385351300239563
vt 0.31999999284744263 0.8385351300239563
vt 0.8385351300239563 0
vt 0.68000000715255737 0
vt 0.8385351300239563 0.47999998927116394
vt 0.68000000715255737 0.47999998927116394
vt 0.31853514909744263 0.36000001430511475
vt 0.15999999642372131 0.36000001430511475
vt 0.31853514909744263 0.72000002861022949
vt 0.15999999642372131 0.72000002861022949
vt 0.99853515625 0
vt 0.8399999737739563 0
vt 0.99853515625 0.47999998927116394
vt 0.8399999737739563 0.47999998927116394
vt 0.15853515267372131 0.36000001430511475
vt 0 0.36000001430511475
vt 0.15853515267372131 0.72000002861022949
vt 0 0.72000002861022949
vt 0 0
vt 0 0.35853517055511475
vt 0.47999998927116394 0
vt 0.47999998927116394 0.35853517055511475
vn -1 0 0
vn -1 0 0
vn -1 0 0
vn -1 0 0
vn 0 0 1
vn 0 0 1
vn 0 0 1
vn 0 0 1
vn 0 1 0
vn 0 1 0
vn 0 1 0
vn 0 1 0
vn 0 0 -1
vn 0 0 -1
vn 0 0 -1
vn 0 0 -1
vn 0 -1 0
vn 0 -1 0
vn 0 -1 0
vn 0 -1 0
vn 1 0 0
vn 1 0 0
vn 1 0 0
vn 1 0 0
f 10/26/26 9/25/25 11/27/27 12/28/28
f 13/30/30 11/29/29 9/31/31 14/32/32
f 15/34/34 12/33/33 11/35/35 13/36/36
f 16/38/38 10/37/37 12/39/39 15/40/40
f 14/42/42 9/41/41 10/43/43 16/44/44
f 16/46/46 15/48/48 13/47/47 14/45/45
