# Rhino

mtllib ReinforcementWandscheibeLaengsbewehrungVerteilt.mtl
g Reinforcement Wandscheibe L_ngsbewehrung_verteilt__konstruktiv_ Pipes
usemtl diffuse_0
v 3.4500000476837158 0.36000001430511475 1.3650000095367432
v 3.4500000476837158 0.36399999260902405 1.3650000095367432
v 3.4539999961853027 0.36000001430511475 1.3650000095367432
v 3.4500000476837158 0.35600000619888306 1.3650000095367432
v 3.4460000991821289 0.36000001430511475 1.3650000095367432
v 3.4500000476837158 0.36399999260902405 -1.565000057220459
v 3.4539999961853027 0.36000001430511475 -1.565000057220459
v 3.4500000476837158 0.35600000619888306 -1.565000057220459
v 3.4460000991821289 0.36000001430511475 -1.565000057220459
v 3.4500000476837158 0.36000001430511475 -1.565000057220459
vt 0 0.5
vt 0 0
vt 0 0.25
vt 0 0.5
vt 0 0.75
vt 0 1
vt 0 0
vt 0 0.25
vt 0 0.25
vt 0 0.5
vt 0 0.5
vt 0 0.75
vt 0 0.75
vt 0 1
vt 1 0
vt 1 0.25
vt 1 0.5
vt 1 0.75
vt 1 1
vt 1 0.5
vt 1 0
vt 1 0.25
vt 1 0.25
vt 1 0.5
vt 1 0.5
vt 1 0.75
vt 1 0.75
vt 1 1
vn 0 0 1
vn 0 1 0
vn 1 0 0
vn 0 -1 0
vn -1 0 0
vn 0 1 0
vn 0 0 1
vn 0 0 1
vn 0 0 1
vn 0 0 1
vn 0 0 1
vn 0 0 1
vn 0 0 1
vn 0 0 1
vn 0 1 0
vn 1 0 0
vn 0 -1 0
vn -1 0 0
vn 0 1 0
vn 0 0 -1
vn 0 0 -1
vn 0 0 -1
vn 0 0 -1
vn 0 0 -1
vn 0 0 -1
vn 0 0 -1
vn 0 0 -1
vn 0 0 -1
f 1/1/1 3/8/8 2/7/7
f 1/1/1 4/10/10 3/9/9
f 1/1/1 5/12/12 4/11/11
f 1/1/1 2/14/14 5/13/13
f 2/2/2 3/3/3 7/16/16 6/15/15
f 3/3/3 4/4/4 8/17/17 7/16/16
f 4/4/4 5/5/5 9/18/18 8/17/17
f 5/5/5 2/6/6 6/19/19 9/18/18
f 6/21/21 7/22/22 10/20/20
f 7/23/23 8/24/24 10/20/20
f 8/25/25 9/26/26 10/20/20
f 9/27/27 6/28/28 10/20/20
usemtl diffuse_0
v 3.4500000476837158 0.20999999344348907 1.3650000095367432
v 3.4500000476837158 0.21400000154972076 1.3650000095367432
v 3.4539999961853027 0.20999999344348907 1.3650000095367432
v 3.4500000476837158 0.20600000023841858 1.3650000095367432
v 3.4460000991821289 0.20999999344348907 1.3650000095367432
v 3.4500000476837158 0.21400000154972076 -1.565000057220459
v 3.4539999961853027 0.20999999344348907 -1.565000057220459
v 3.4500000476837158 0.20600000023841858 -1.565000057220459
v 3.4460000991821289 0.20999999344348907 -1.565000057220459
v 3.4500000476837158 0.20999999344348907 -1.565000057220459
vt 0 0.5
vt 0 0
vt 0 0.25
vt 0 0.5
vt 0 0.75
vt 0 1
vt 0 0
vt 0 0.25
vt 0 0.25
vt 0 0.5
vt 0 0.5
vt 0 0.75
vt 0 0.75
vt 0 1
vt 1 0
vt 1 0.25
vt 1 0.5
vt 1 0.75
vt 1 1
vt 1 0.5
vt 1 0
vt 1 0.25
vt 1 0.25
vt 1 0.5
vt 1 0.5
vt 1 0.75
vt 1 0.75
vt 1 1
vn 0 0 1
vn 0 1 0
vn 1 0 0
vn 0 -1 0
vn -1 0 0
vn 0 1 0
vn 0 0 1
vn 0 0 1
vn 0 0 1
vn 0 0 1
vn 0 0 1
vn 0 0 1
vn 0 0 1
vn 0 0 1
vn 0 1 0
vn 1 0 0
vn 0 -1 0
vn -1 0 0
vn 0 1 0
vn 0 0 -1
vn 0 0 -1
vn 0 0 -1
vn 0 0 -1
vn 0 0 -1
vn 0 0 -1
vn 0 0 -1
vn 0 0 -1
vn 0 0 -1
f 11/29/29 13/36/36 12/35/35
f 11/29/29 14/38/38 13/37/37
f 11/29/29 15/40/40 14/39/39
f 11/29/29 12/42/42 15/41/41
f 12/30/30 13/31/31 17/44/44 16/43/43
f 13/31/31 14/32/32 18/45/45 17/44/44
f 14/32/32 15/33/33 19/46/46 18/45/45
f 15/33/33 12/34/34 16/47/47 19/46/46
f 16/49/49 17/50/50 20/48/48
f 17/51/51 18/52/52 20/48/48
f 18/53/53 19/54/54 20/48/48
f 19/55/55 16/56/56 20/48/48
usemtl diffuse_0
v 3.4700000286102295 0.059999998658895493 1.3650000095367432
v 3.4700000286102295 0.064000003039836884 1.3650000095367432
v 3.4739999771118164 0.059999998658895493 1.3650000095367432
v 3.4700000286102295 0.056000001728534698 1.3650000095367432
v 3.4660000801086426 0.059999998658895493 1.3650000095367432
v 3.4700000286102295 0.064000003039836884 -1.565000057220459
v 3.4739999771118164 0.059999998658895493 -1.565000057220459
v 3.4700000286102295 0.056000001728534698 -1.565000057220459
v 3.4660000801086426 0.059999998658895493 -1.565000057220459
v 3.4700000286102295 0.059999998658895493 -1.565000057220459
vt 0 0.5
vt 0 0
vt 0 0.25
vt 0 0.5
vt 0 0.75
vt 0 1
vt 0 0
vt 0 0.25
vt 0 0.25
vt 0 0.5
vt 0 0.5
vt 0 0.75
vt 0 0.75
vt 0 1
vt 1 0
vt 1 0.25
vt 1 0.5
vt 1 0.75
vt 1 1
vt 1 0.5
vt 1 0
vt 1 0.25
vt 1 0.25
vt 1 0.5
vt 1 0.5
vt 1 0.75
vt 1 0.75
vt 1 1
vn 0 0 1
vn 0 1 0
vn 1 0 0
vn 0 -1 0
vn -1 0 0
vn 0 1 0
vn 0 0 1
vn 0 0 1
vn 0 0 1
vn 0 0 1
vn 0 0 1
vn 0 0 1
vn 0 0 1
vn 0 0 1
vn 0 1 0
vn 1 0 0
vn 0 -1 0
vn -1 0 0
vn 0 1 0
vn 0 0 -1
vn 0 0 -1
vn 0 0 -1
vn 0 0 -1
vn 0 0 -1
vn 0 0 -1
vn 0 0 -1
vn 0 0 -1
vn 0 0 -1
f 21/57/57 23/64/64 22/63/63
f 21/57/57 24/66/66 23/65/65
f 21/57/57 25/68/68 24/67/67
f 21/57/57 22/70/70 25/69/69
f 22/58/58 23/59/59 27/72/72 26/71/71
f 23/59/59 24/60/60 28/73/73 27/72/72
f 24/60/60 25/61/61 29/74/74 28/73/73
f 25/61/61 22/62/62 26/75/75 29/74/74
f 26/77/77 27/78/78 30/76/76
f 27/79/79 28/80/80 30/76/76
f 28/81/81 29/82/82 30/76/76
f 29/83/83 26/84/84 30/76/76
usemtl diffuse_0
v 3.4500000476837158 0.81000000238418579 1.3650000095367432
v 3.4500000476837158 0.81400001049041748 1.3650000095367432
v 3.4539999961853027 0.81000000238418579 1.3650000095367432
v 3.4500000476837158 0.8059999942779541 1.3650000095367432
v 3.4460000991821289 0.81000000238418579 1.3650000095367432
v 3.4500000476837158 0.81400001049041748 -1.565000057220459
v 3.4539999961853027 0.81000000238418579 -1.565000057220459
v 3.4500000476837158 0.8059999942779541 -1.565000057220459
v 3.4460000991821289 0.81000000238418579 -1.565000057220459
v 3.4500000476837158 0.81000000238418579 -1.565000057220459
vt 0 0.5
vt 0 0
vt 0 0.25
vt 0 0.5
vt 0 0.75
vt 0 1
vt 0 0
vt 0 0.25
vt 0 0.25
vt 0 0.5
vt 0 0.5
vt 0 0.75
vt 0 0.75
vt 0 1
vt 1 0
vt 1 0.25
vt 1 0.5
vt 1 0.75
vt 1 1
vt 1 0.5
vt 1 0
vt 1 0.25
vt 1 0.25
vt 1 0.5
vt 1 0.5
vt 1 0.75
vt 1 0.75
vt 1 1
vn 0 0 1
vn 0 1 0
vn 1 0 0
vn 0 -1 0
vn -1 0 0
vn 0 1 0
vn 0 0 1
vn 0 0 1
vn 0 0 1
vn 0 0 1
vn 0 0 1
vn 0 0 1
vn 0 0 1
vn 0 0 1
vn 0 1 0
vn 1 0 0
vn 0 -1 0
vn -1 0 0
vn 0 1 0
vn 0 0 -1
vn 0 0 -1
vn 0 0 -1
vn 0 0 -1
vn 0 0 -1
vn 0 0 -1
vn 0 0 -1
vn 0 0 -1
vn 0 0 -1
f 31/85/85 33/92/92 32/91/91
f 31/85/85 34/94/94 33/93/93
f 31/85/85 35/96/96 34/95/95
f 31/85/85 32/98/98 35/97/97
f 32/86/86 33/87/87 37/100/100 36/99/99
f 33/87/87 34/88/88 38/101/101 37/100/100
f 34/88/88 35/89/89 39/102/102 38/101/101
f 35/89/89 32/90/90 36/103/103 39/102/102
f 36/105/105 37/106/106 40/104/104
f 37/107/107 38/108/108 40/104/104
f 38/109/109 39/110/110 40/104/104
f 39/111/111 36/112/112 40/104/104
usemtl diffuse_0
v 3.4500000476837158 0.6600000262260437 1.3650000095367432
v 3.4500000476837158 0.66399997472763062 1.3650000095367432
v 3.4539999961853027 0.6600000262260437 1.3650000095367432
v 3.4500000476837158 0.65600001811981201 1.3650000095367432
v 3.4460000991821289 0.6600000262260437 1.3650000095367432
v 3.4500000476837158 0.66399997472763062 -1.565000057220459
v 3.4539999961853027 0.6600000262260437 -1.565000057220459
v 3.4500000476837158 0.65600001811981201 -1.565000057220459
v 3.4460000991821289 0.6600000262260437 -1.565000057220459
v 3.4500000476837158 0.6600000262260437 -1.565000057220459
vt 0 0.5
vt 0 0
vt 0 0.25
vt 0 0.5
vt 0 0.75
vt 0 1
vt 0 0
vt 0 0.25
vt 0 0.25
vt 0 0.5
vt 0 0.5
vt 0 0.75
vt 0 0.75
vt 0 1
vt 1 0
vt 1 0.25
vt 1 0.5
vt 1 0.75
vt 1 1
vt 1 0.5
vt 1 0
vt 1 0.25
vt 1 0.25
vt 1 0.5
vt 1 0.5
vt 1 0.75
vt 1 0.75
vt 1 1
vn 0 0 1
vn 0 1 0
vn 1 0 0
vn 0 -1 0
vn -1 0 0
vn 0 1 0
vn 0 0 1
vn 0 0 1
vn 0 0 1
vn 0 0 1
vn 0 0 1
vn 0 0 1
vn 0 0 1
vn 0 0 1
vn 0 1 0
vn 1 0 0
vn 0 -1 0
vn -1 0 0
vn 0 1 0
vn 0 0 -1
vn 0 0 -1
vn 0 0 -1
vn 0 0 -1
vn 0 0 -1
vn 0 0 -1
vn 0 0 -1
vn 0 0 -1
vn 0 0 -1
f 41/113/113 43/120/120 42/119/119
f 41/113/113 44/122/122 43/121/121
f 41/113/113 45/124/124 44/123/123
f 41/113/113 42/126/126 45/125/125
f 42/114/114 43/115/115 47/128/128 46/127/127
f 43/115/115 44/116/116 48/129/129 47/128/128
f 44/116/116 45/117/117 49/130/130 48/129/129
f 45/117/117 42/118/118 46/131/131 49/130/130
f 46/133/133 47/134/134 50/132/132
f 47/135/135 48/136/136 50/132/132
f 48/137/137 49/138/138 50/132/132
f 49/139/139 46/140/140 50/132/132
usemtl diffuse_0
v 3.4500000476837158 0.50999999046325684 1.3650000095367432
v 3.4500000476837158 0.51399999856948853 1.3650000095367432
v 3.4539999961853027 0.50999999046325684 1.3650000095367432
v 3.4500000476837158 0.50599998235702515 1.3650000095367432
v 3.4460000991821289 0.50999999046325684 1.3650000095367432
v 3.4500000476837158 0.51399999856948853 -1.565000057220459
v 3.4539999961853027 0.50999999046325684 -1.565000057220459
v 3.4500000476837158 0.50599998235702515 -1.565000057220459
v 3.4460000991821289 0.50999999046325684 -1.565000057220459
v 3.4500000476837158 0.50999999046325684 -1.565000057220459
vt 0 0.5
vt 0 0
vt 0 0.25
vt 0 0.5
vt 0 0.75
vt 0 1
vt 0 0
vt 0 0.25
vt 0 0.25
vt 0 0.5
vt 0 0.5
vt 0 0.75
vt 0 0.75
vt 0 1
vt 1 0
vt 1 0.25
vt 1 0.5
vt 1 0.75
vt 1 1
vt 1 0.5
vt 1 0
vt 1 0.25
vt 1 0.25
vt 1 0.5
vt 1 0.5
vt 1 0.75
vt 1 0.75
vt 1 1
vn 0 0 1
vn 0 1 0
vn 1 0 0
vn 0 -1 0
vn -1 0 0
vn 0 1 0
vn 0 0 1
vn 0 0 1
vn 0 0 1
vn 0 0 1
vn 0 0 1
vn 0 0 1
vn 0 0 1
vn 0 0 1
vn 0 1 0
vn 1 0 0
vn 0 -1 0
vn -1 0 0
vn 0 1 0
vn 0 0 -1
vn 0 0 -1
vn 0 0 -1
vn 0 0 -1
vn 0 0 -1
vn 0 0 -1
vn 0 0 -1
vn 0 0 -1
vn 0 0 -1
f 51/141/141 53/148/148 52/147/147
f 51/141/141 54/150/150 53/149/149
f 51/141/141 55/152/152 54/151/151
f 51/141/141 52/154/154 55/153/153
f 52/142/142 53/143/143 57/156/156 56/155/155
f 53/143/143 54/144/144 58/157/157 57/156/156
f 54/144/144 55/145/145 59/158/158 58/157/157
f 55/145/145 52/146/146 56/159/159 59/158/158
f 56/161/161 57/162/162 60/160/160
f 57/163/163 58/164/164 60/160/160
f 58/165/165 59/166/166 60/160/160
f 59/167/167 56/168/168 60/160/160
usemtl diffuse_0
v 3.5499999523162842 0.36000001430511475 1.3650000095367432
v 3.5499999523162842 0.36399999260902405 1.3650000095367432
v 3.5539999008178711 0.36000001430511475 1.3650000095367432
v 3.5499999523162842 0.35600000619888306 1.3650000095367432
v 3.5460000038146973 0.36000001430511475 1.3650000095367432
v 3.5499999523162842 0.36399999260902405 -1.565000057220459
v 3.5539999008178711 0.36000001430511475 -1.565000057220459
v 3.5499999523162842 0.35600000619888306 -1.565000057220459
v 3.5460000038146973 0.36000001430511475 -1.565000057220459
v 3.5499999523162842 0.36000001430511475 -1.565000057220459
vt 0 0.5
vt 0 0
vt 0 0.25
vt 0 0.5
vt 0 0.75
vt 0 1
vt 0 0
vt 0 0.25
vt 0 0.25
vt 0 0.5
vt 0 0.5
vt 0 0.75
vt 0 0.75
vt 0 1
vt 1 0
vt 1 0.25
vt 1 0.5
vt 1 0.75
vt 1 1
vt 1 0.5
vt 1 0
vt 1 0.25
vt 1 0.25
vt 1 0.5
vt 1 0.5
vt 1 0.75
vt 1 0.75
vt 1 1
vn 0 0 1
vn 0 1 0
vn 1 0 0
vn 0 -1 0
vn -1 0 0
vn 0 1 0
vn 0 0 1
vn 0 0 1
vn 0 0 1
vn 0 0 1
vn 0 0 1
vn 0 0 1
vn 0 0 1
vn 0 0 1
vn 0 1 0
vn 1 0 0
vn 0 -1 0
vn -1 0 0
vn 0 1 0
vn 0 0 -1
vn 0 0 -1
vn 0 0 -1
vn 0 0 -1
vn 0 0 -1
vn 0 0 -1
vn 0 0 -1
vn 0 0 -1
vn 0 0 -1
f 61/169/169 63/176/176 62/175/175
f 61/169/169 64/178/178 63/177/177
f 61/169/169 65/180/180 64/179/179
f 61/169/169 62/182/182 65/181/181
f 62/170/170 63/171/171 67/184/184 66/183/183
f 63/171/171 64/172/172 68/185/185 67/184/184
f 64/172/172 65/173/173 69/186/186 68/185/185
f 65/173/173 62/174/174 66/187/187 69/186/186
f 66/189/189 67/190/190 70/188/188
f 67/191/191 68/192/192 70/188/188
f 68/193/193 69/194/194 70/188/188
f 69/195/195 66/196/196 70/188/188
usemtl diffuse_0
v 3.5499999523162842 0.20999999344348907 1.3650000095367432
v 3.5499999523162842 0.21400000154972076 1.3650000095367432
v 3.5539999008178711 0.20999999344348907 1.3650000095367432
v 3.5499999523162842 0.20600000023841858 1.3650000095367432
v 3.5460000038146973 0.20999999344348907 1.3650000095367432
v 3.5499999523162842 0.21400000154972076 -1.565000057220459
v 3.5539999008178711 0.20999999344348907 -1.565000057220459
v 3.5499999523162842 0.20600000023841858 -1.565000057220459
v 3.5460000038146973 0.20999999344348907 -1.565000057220459
v 3.5499999523162842 0.20999999344348907 -1.565000057220459
vt 0 0.5
vt 0 0
vt 0 0.25
vt 0 0.5
vt 0 0.75
vt 0 1
vt 0 0
vt 0 0.25
vt 0 0.25
vt 0 0.5
vt 0 0.5
vt 0 0.75
vt 0 0.75
vt 0 1
vt 1 0
vt 1 0.25
vt 1 0.5
vt 1 0.75
vt 1 1
vt 1 0.5
vt 1 0
vt 1 0.25
vt 1 0.25
vt 1 0.5
vt 1 0.5
vt 1 0.75
vt 1 0.75
vt 1 1
vn 0 0 1
vn 0 1 0
vn 1 0 0
vn 0 -1 0
vn -1 0 0
vn 0 1 0
vn 0 0 1
vn 0 0 1
vn 0 0 1
vn 0 0 1
vn 0 0 1
vn 0 0 1
vn 0 0 1
vn 0 0 1
vn 0 1 0
vn 1 0 0
vn 0 -1 0
vn -1 0 0
vn 0 1 0
vn 0 0 -1
vn 0 0 -1
vn 0 0 -1
vn 0 0 -1
vn 0 0 -1
vn 0 0 -1
vn 0 0 -1
vn 0 0 -1
vn 0 0 -1
f 71/197/197 73/204/204 72/203/203
f 71/197/197 74/206/206 73/205/205
f 71/197/197 75/208/208 74/207/207
f 71/197/197 72/210/210 75/209/209
f 72/198/198 73/199/199 77/212/212 76/211/211
f 73/199/199 74/200/200 78/213/213 77/212/212
f 74/200/200 75/201/201 79/214/214 78/213/213
f 75/201/201 72/202/202 76/215/215 79/214/214
f 76/217/217 77/218/218 80/216/216
f 77/219/219 78/220/220 80/216/216
f 78/221/221 79/222/222 80/216/216
f 79/223/223 76/224/224 80/216/216
usemtl diffuse_0
v 3.5299999713897705 0.059999998658895493 1.3650000095367432
v 3.5299999713897705 0.064000003039836884 1.3650000095367432
v 3.5339999198913574 0.059999998658895493 1.3650000095367432
v 3.5299999713897705 0.056000001728534698 1.3650000095367432
v 3.5260000228881836 0.059999998658895493 1.3650000095367432
v 3.5299999713897705 0.064000003039836884 -1.565000057220459
v 3.5339999198913574 0.059999998658895493 -1.565000057220459
v 3.5299999713897705 0.056000001728534698 -1.565000057220459
v 3.5260000228881836 0.059999998658895493 -1.565000057220459
v 3.5299999713897705 0.059999998658895493 -1.565000057220459
vt 0 0.5
vt 0 0
vt 0 0.25
vt 0 0.5
vt 0 0.75
vt 0 1
vt 0 0
vt 0 0.25
vt 0 0.25
vt 0 0.5
vt 0 0.5
vt 0 0.75
vt 0 0.75
vt 0 1
vt 1 0
vt 1 0.25
vt 1 0.5
vt 1 0.75
vt 1 1
vt 1 0.5
vt 1 0
vt 1 0.25
vt 1 0.25
vt 1 0.5
vt 1 0.5
vt 1 0.75
vt 1 0.75
vt 1 1
vn 0 0 1
vn 0 1 0
vn 1 0 0
vn 0 -1 0
vn -1 0 0
vn 0 1 0
vn 0 0 1
vn 0 0 1
vn 0 0 1
vn 0 0 1
vn 0 0 1
vn 0 0 1
vn 0 0 1
vn 0 0 1
vn 0 1 0
vn 1 0 0
vn 0 -1 0
vn -1 0 0
vn 0 1 0
vn 0 0 -1
vn 0 0 -1
vn 0 0 -1
vn 0 0 -1
vn 0 0 -1
vn 0 0 -1
vn 0 0 -1
vn 0 0 -1
vn 0 0 -1
f 81/225/225 83/232/232 82/231/231
f 81/225/225 84/234/234 83/233/233
f 81/225/225 85/236/236 84/235/235
f 81/225/225 82/238/238 85/237/237
f 82/226/226 83/227/227 87/240/240 86/239/239
f 83/227/227 84/228/228 88/241/241 87/240/240
f 84/228/228 85/229/229 89/242/242 88/241/241
f 85/229/229 82/230/230 86/243/243 89/242/242
f 86/245/245 87/246/246 90/244/244
f 87/247/247 88/248/248 90/244/244
f 88/249/249 89/250/250 90/244/244
f 89/251/251 86/252/252 90/244/244
usemtl diffuse_0
v 3.5499999523162842 0.81000000238418579 1.3650000095367432
v 3.5499999523162842 0.81400001049041748 1.3650000095367432
v 3.5539999008178711 0.81000000238418579 1.3650000095367432
v 3.5499999523162842 0.8059999942779541 1.3650000095367432
v 3.5460000038146973 0.81000000238418579 1.3650000095367432
v 3.5499999523162842 0.81400001049041748 -1.565000057220459
v 3.5539999008178711 0.81000000238418579 -1.565000057220459
v 3.5499999523162842 0.8059999942779541 -1.565000057220459
v 3.5460000038146973 0.81000000238418579 -1.565000057220459
v 3.5499999523162842 0.81000000238418579 -1.565000057220459
vt 0 0.5
vt 0 0
vt 0 0.25
vt 0 0.5
vt 0 0.75
vt 0 1
vt 0 0
vt 0 0.25
vt 0 0.25
vt 0 0.5
vt 0 0.5
vt 0 0.75
vt 0 0.75
vt 0 1
vt 1 0
vt 1 0.25
vt 1 0.5
vt 1 0.75
vt 1 1
vt 1 0.5
vt 1 0
vt 1 0.25
vt 1 0.25
vt 1 0.5
vt 1 0.5
vt 1 0.75
vt 1 0.75
vt 1 1
vn 0 0 1
vn 0 1 0
vn 1 0 0
vn 0 -1 0
vn -1 0 0
vn 0 1 0
vn 0 0 1
vn 0 0 1
vn 0 0 1
vn 0 0 1
vn 0 0 1
vn 0 0 1
vn 0 0 1
vn 0 0 1
vn 0 1 0
vn 1 0 0
vn 0 -1 0
vn -1 0 0
vn 0 1 0
vn 0 0 -1
vn 0 0 -1
vn 0 0 -1
vn 0 0 -1
vn 0 0 -1
vn 0 0 -1
vn 0 0 -1
vn 0 0 -1
vn 0 0 -1
f 91/253/253 93/260/260 92/259/259
f 91/253/253 94/262/262 93/261/261
f 91/253/253 95/264/264 94/263/263
f 91/253/253 92/266/266 95/265/265
f 92/254/254 93/255/255 97/268/268 96/267/267
f 93/255/255 94/256/256 98/269/269 97/268/268
f 94/256/256 95/257/257 99/270/270 98/269/269
f 95/257/257 92/258/258 96/271/271 99/270/270
f 96/273/273 97/274/274 100/272/272
f 97/275/275 98/276/276 100/272/272
f 98/277/277 99/278/278 100/272/272
f 99/279/279 96/280/280 100/272/272
usemtl diffuse_0
v 3.5499999523162842 0.6600000262260437 1.3650000095367432
v 3.5499999523162842 0.66399997472763062 1.3650000095367432
v 3.5539999008178711 0.6600000262260437 1.3650000095367432
v 3.5499999523162842 0.65600001811981201 1.3650000095367432
v 3.5460000038146973 0.6600000262260437 1.3650000095367432
v 3.5499999523162842 0.66399997472763062 -1.565000057220459
v 3.5539999008178711 0.6600000262260437 -1.565000057220459
v 3.5499999523162842 0.65600001811981201 -1.565000057220459
v 3.5460000038146973 0.6600000262260437 -1.565000057220459
v 3.5499999523162842 0.6600000262260437 -1.565000057220459
vt 0 0.5
vt 0 0
vt 0 0.25
vt 0 0.5
vt 0 0.75
vt 0 1
vt 0 0
vt 0 0.25
vt 0 0.25
vt 0 0.5
vt 0 0.5
vt 0 0.75
vt 0 0.75
vt 0 1
vt 1 0
vt 1 0.25
vt 1 0.5
vt 1 0.75
vt 1 1
vt 1 0.5
vt 1 0
vt 1 0.25
vt 1 0.25
vt 1 0.5
vt 1 0.5
vt 1 0.75
vt 1 0.75
vt 1 1
vn 0 0 1
vn 0 1 0
vn 1 0 0
vn 0 -1 0
vn -1 0 0
vn 0 1 0
vn 0 0 1
vn 0 0 1
vn 0 0 1
vn 0 0 1
vn 0 0 1
vn 0 0 1
vn 0 0 1
vn 0 0 1
vn 0 1 0
vn 1 0 0
vn 0 -1 0
vn -1 0 0
vn 0 1 0
vn 0 0 -1
vn 0 0 -1
vn 0 0 -1
vn 0 0 -1
vn 0 0 -1
vn 0 0 -1
vn 0 0 -1
vn 0 0 -1
vn 0 0 -1
f 101/281/281 103/288/288 102/287/287
f 101/281/281 104/290/290 103/289/289
f 101/281/281 105/292/292 104/291/291
f 101/281/281 102/294/294 105/293/293
f 102/282/282 103/283/283 107/296/296 106/295/295
f 103/283/283 104/284/284 108/297/297 107/296/296
f 104/284/284 105/285/285 109/298/298 108/297/297
f 105/285/285 102/286/286 106/299/299 109/298/298
f 106/301/301 107/302/302 110/300/300
f 107/303/303 108/304/304 110/300/300
f 108/305/305 109/306/306 110/300/300
f 109/307/307 106/308/308 110/300/300
usemtl diffuse_0
v 3.5499999523162842 0.50999999046325684 1.3650000095367432
v 3.5499999523162842 0.51399999856948853 1.3650000095367432
v 3.5539999008178711 0.50999999046325684 1.3650000095367432
v 3.5499999523162842 0.50599998235702515 1.3650000095367432
v 3.5460000038146973 0.50999999046325684 1.3650000095367432
v 3.5499999523162842 0.51399999856948853 -1.565000057220459
v 3.5539999008178711 0.50999999046325684 -1.565000057220459
v 3.5499999523162842 0.50599998235702515 -1.565000057220459
v 3.5460000038146973 0.50999999046325684 -1.565000057220459
v 3.5499999523162842 0.50999999046325684 -1.565000057220459
vt 0 0.5
vt 0 0
vt 0 0.25
vt 0 0.5
vt 0 0.75
vt 0 1
vt 0 0
vt 0 0.25
vt 0 0.25
vt 0 0.5
vt 0 0.5
vt 0 0.75
vt 0 0.75
vt 0 1
vt 1 0
vt 1 0.25
vt 1 0.5
vt 1 0.75
vt 1 1
vt 1 0.5
vt 1 0
vt 1 0.25
vt 1 0.25
vt 1 0.5
vt 1 0.5
vt 1 0.75
vt 1 0.75
vt 1 1
vn 0 0 1
vn 0 1 0
vn 1 0 0
vn 0 -1 0
vn -1 0 0
vn 0 1 0
vn 0 0 1
vn 0 0 1
vn 0 0 1
vn 0 0 1
vn 0 0 1
vn 0 0 1
vn 0 0 1
vn 0 0 1
vn 0 1 0
vn 1 0 0
vn 0 -1 0
vn -1 0 0
vn 0 1 0
vn 0 0 -1
vn 0 0 -1
vn 0 0 -1
vn 0 0 -1
vn 0 0 -1
vn 0 0 -1
vn 0 0 -1
vn 0 0 -1
vn 0 0 -1
f 111/309/309 113/316/316 112/315/315
f 111/309/309 114/318/318 113/317/317
f 111/309/309 115/320/320 114/319/319
f 111/309/309 112/322/322 115/321/321
f 112/310/310 113/311/311 117/324/324 116/323/323
f 113/311/311 114/312/312 118/325/325 117/324/324
f 114/312/312 115/313/313 119/326/326 118/325/325
f 115/313/313 112/314/314 116/327/327 119/326/326
f 116/329/329 117/330/330 120/328/328
f 117/331/331 118/332/332 120/328/328
f 118/333/333 119/334/334 120/328/328
f 119/335/335 116/336/336 120/328/328
