# Rhino

mtllib SectionForcesWandscheibe.mtl
usemtl Plaster
v 3.5 -1.25 1.0010221004486084
v 3.5 -1.1749999523162842 -0.49948897957801819
v 3.5 -1.1000000238418579 -2
v 3.5 -1.25 1.0010221004486084
v 3.5 -1.1749999523162842 1.0010221004486084
v 3.5 -1.1000000238418579 1.0010221004486084
vt 0 0
vt 0 0.5
vt 0 1
vt 1 0
vt 1 0.5
vt 1 1
vn -1 0 0
vn -1 0 0
vn -1 0 0
vn -1 0 0
vn -1 0 0
vn -1 0 0
f 5/5/5 2/2/2 1/1/1
f 6/6/6 3/3/3 2/2/2 5/5/5
usemtl Plaster
v 3.5 -0.5 -2
v 3.5 -0.80000001192092896 -2
v 3.5 -0.5 1.0010221004486084
v 3.5 -0.80000001192092896 1.0010221004486084
vt 0 0
vt 0 1
vt 1 0
vt 1 1
vn -1 0 0
vn -1 0 0
vn -1 0 0
vn -1 0 0
f 10/10/10 9/9/9 7/7/7 8/8/8
usemtl Plaster
v 3.5 -1.25 1.0010221004486084
v 3.5 -1.1749999523162842 -0.49948897957801819
v 3.5 -1.1000000238418579 -2
v 3.5 -1.25 1.0010221004486084
v 3.5 -1.1749999523162842 1.0010221004486084
v 3.5 -1.1000000238418579 1.0010221004486084
vt 0 0
vt 0 0.5
vt 0 1
vt 1 0
vt 1 0.5
vt 1 1
vn 1 0 0
vn 1 0 0
vn 1 0 0
vn 1 0 0
vn 1 0 0
vn 1 0 0
f 15/15/15 11/11/11 12/12/12
f 16/16/16 15/15/15 12/12/12 13/13/13
usemtl Plaster
v 3.5 -0.5 -2
v 3.5 -0.80000001192092896 -2
v 3.5 -0.5 1.0010221004486084
v 3.5 -0.80000001192092896 1.0010221004486084
vt 0 0
vt 0 1
vt 1 0
vt 1 1
vn 1 0 0
vn 1 0 0
vn 1 0 0
vn 1 0 0
f 20/20/20 18/18/18 17/17/17 19/19/19
