# Rhino

mtllib SectionForcesHohlkasten.mtl
g Section_forces Hohlkasten Surfaces
usemtl Plaster
v -3.5 -0.5 1
v -3.5 -0.80000001192092896 1
v 3.5 -0.5 1.0010221004486084
v 3.5 -0.80000001192092896 1.0010221004486084
vt 0 0
vt 0 1
vt 1 0
vt 1 1
vn -0.00014600825670640916 0 1
vn -0.00014600825670640916 0 1
vn -0.00014600825670640916 0 1
vn -0.00014600825670640916 0 1
f 4/4/4 3/3/3 1/1/1 2/2/2
usemtl Plaster
v 3.5 -1.1000000238418579 1.0010221004486084
v 0 -1.1000000238418579 1.0005110502243042
v -3.5 -1.1000000238418579 1
v 0 -1.2749999761581421 1.0005110502243042
v -3.5 -1.4500000476837158 1
vt 0 0
vt 0 0.5
vt 0 1
vt 1 0
vt 1 0.5
vt 1 1
vn -0.00014600825670640916 0 1
vn -0.00014600825670640916 0 1
vn -0.00014600825670640916 0 1
vn -0.00014600825670640916 0 1
vn -0.00014600825670640916 0 1
vn -0.00014600825670640916 0 1
f 8/9/9 5/5/5 6/6/6
f 9/10/10 8/9/9 6/6/6 7/7/7
usemtl Plaster
v -3.5 -1.7000000476837158 1
v -3.5 -1.8500000238418579 1
v 3.5 -1.7000000476837158 1.0010221004486084
v 3.5 -1.8500000238418579 1.0010221004486084
vt 0 0
vt 0 1
vt 1 0
vt 1 1
vn -0.00014600825670640916 0 1
vn -0.00014600825670640916 0 1
vn -0.00014600825670640916 0 1
vn -0.00014600825670640916 0 1
f 13/14/14 12/13/13 10/11/11 11/12/12
usemtl Plaster
v -3.5 -0.5 1
v -3.5 -0.80000001192092896 1
v 3.5 -0.5 1.0010221004486084
v 3.5 -0.80000001192092896 1.0010221004486084
vt 0 0
vt 0 1
vt 1 0
vt 1 1
vn 0.00014600825670640916 0 -1
vn 0.00014600825670640916 0 -1
vn 0.00014600825670640916 0 -1
vn 0.00014600825670640916 0 -1
f 17/18/18 15/16/16 14/15/15 16/17/17
usemtl Plaster
v 3.5 -1.1000000238418579 1.0010221004486084
v 0 -1.1000000238418579 1.0005110502243042
v -3.5 -1.1000000238418579 1
v 0 -1.2749999761581421 1.0005110502243042
v -3.5 -1.4500000476837158 1
vt 0 0
vt 0 0.5
vt 0 1
vt 1 0
vt 1 0.5
vt 1 1
vn 0.00014600825670640916 0 -1
vn 0.00014600825670640916 0 -1
vn 0.00014600825670640916 0 -1
vn 0.00014600825670640916 0 -1
vn 0.00014600825670640916 0 -1
vn 0.00014600825670640916 0 -1
f 21/23/23 19/20/20 18/19/19
f 22/24/24 20/21/21 19/20/20 21/23/23
usemtl Plaster
v -3.5 -1.7000000476837158 1
v -3.5 -1.8500000238418579 1
v 3.5 -1.7000000476837158 1.0010221004486084
v 3.5 -1.8500000238418579 1.0010221004486084
vt 0 0
vt 0 1
vt 1 0
vt 1 1
vn 0.00014600825670640916 0 -1
vn 0.00014600825670640916 0 -1
vn 0.00014600825670640916 0 -1
vn 0.00014600825670640916 0 -1
f 26/28/28 24/26/26 23/25/25 25/27/27
